<?xml version="1.0" encoding="utf-8"?>
<!-- Generator: Adobe Illustrator 15.0.2, SVG Export Plug-In . SVG Version: 6.00 Build 0)  -->
<!DOCTYPE svg PUBLIC "-//W3C//DTD SVG 1.1//EN" "http://www.w3.org/Graphics/SVG/1.1/DTD/svg11.dtd">
<svg version="1.1" id="Layer_1" xmlns="http://www.w3.org/2000/svg" xmlns:xlink="http://www.w3.org/1999/xlink" x="0px" y="0px"
	 width="500px" height="100px" viewBox="0 0 500 100" enable-background="new 0 0 500 100" xml:space="preserve">
<g>
	<path fill="none" stroke="#000000" stroke-width="2" stroke-linecap="round" stroke-linejoin="round" stroke-miterlimit="10" d="
		M53.801,32.298c-4.822-3.047-14.162-3.77-14.744,4.404c-0.708,9.973,28.188,16.125,20.892,35.143
		c-8.805,22.951-43.458-8.423,2.489-14.05c9.167-1.124,20.256,0,24.003-12.487c3.554-11.837-9.396-7.367-12.876-0.361
		c-14.431,29.048,41.378,25.04,35.146-5.82c-14.271,0.165-18.118,24.267-2.226,25.323c9.624,0.641,17.494-38.226,40.472-16.611
		c-7.529-13.175-34.326-2.443-24.438,11.413c16.603,23.264,22.419-35.055,23.381-40.642c-2.297,16.639-6.676,62.495,24.761,43.966"
		/>
</g>
<path fill="none" stroke="#000000" stroke-width="2" stroke-linecap="round" stroke-linejoin="round" stroke-miterlimit="10" d="
	M205.72,30.822c0.423,8.335-5.079,23.225,0.814,29.901c5.321,6.029,14.954,5.251,18.309-1.217"/>
<path fill="none" stroke="#000000" stroke-width="2" stroke-linecap="round" stroke-linejoin="round" stroke-miterlimit="10" d="
	M195.173,46.758c10.183,0.442,18.044-1.368,23.904-1.593"/>
<path fill="none" stroke="#000000" stroke-width="2" stroke-linecap="round" stroke-linejoin="round" stroke-miterlimit="10" d="
	M242.372,41.977c-10.244-5.994-20.775,17.194-4.004,18.666c20.328,1.787,14.451-20.841-5.557-19.708"/>
<g>
	<path fill="none" stroke="#000000" stroke-width="2" stroke-linecap="round" stroke-linejoin="round" stroke-miterlimit="10" d="
		M291.773,39.232c-2.745-3.196-7.38-5.674-11.248,0.1c-3.591,5.363,16.494,20.732,15.73,30.051c-3.025,6.917-9.814,8.61-16.64,2.312
		c-0.087-12.765,12.813-11.342,20.639-18.407c9.652-8.715,15.238-18.388,13.822-32.067c0.026,16.104,0.945,31.968,1.6,47.979
		c-0.876-7.623,1.81-16.172,9.244-18.874c1.691,14.921,16.417,19.188,19.908,2.394c0.112,4.693,4.062,10.038,5.835,13.81
		c7.502-4.319,11.156-13.949,20.547-12.55c-2.569,30.148,31.977,10.237,28.988-12.789c-1.811,16.807,16.531,49.096,33.402,26.727"/>
	<path fill="none" stroke="#000000" stroke-width="2" stroke-linecap="round" stroke-linejoin="round" stroke-miterlimit="10" d="
		M384.2,47.2c-0.503,1.224,32.958,4.631,41.362,4.9c2.246-0.115,1.739-0.156-1.522-0.119"/>
	<path fill="none" stroke="#000000" stroke-width="2" stroke-linecap="round" stroke-linejoin="round" stroke-miterlimit="10" d="
		M347.548,20.109c-1.47,1.248-2.022,2.913-1.593,4.781"/>
</g>
</svg>
