<svg xmlns="http://www.w3.org/2000/svg" xmlns:xlink="http://www.w3.org/1999/xlink" version="1.1" x="0px" y="0px" width="388.17px" height="136.148px" viewBox="0 0 388.17 136.148" enable-background="new 0 0 388.17 136.148" xml:space="preserve"><style>.style0{fill:	#FFFFFF;}.style1{stroke:	#FFFFFF;stroke-width:	4;fill:	none;}</style><path d="M78.622 100.488V62.705c0-5.572-1.076-9.646-3.221-12.211c-2.143-2.562-5.65-3.849-10.519-3.849 c-2.248 0-4.647 0.632-7.205 1.896c-2.55 1.255-4.549 2.83-5.979 4.699v47.247H36.394v-65.64h11.032l2.819 6.1 c4.167-4.82 10.31-7.229 18.444-7.229c7.788 0 14 2.3 18.5 7.011c4.512 4.7 6.8 11.2 6.8 19.539v40.2H78.622z" class="style0"/><path d="M189.621 46.824c7.043 0 12.1 1.6 15.1 4.743c3.048 3.2 4.6 8.6 4.6 16.3 c0 7.25-1.541 12.558-4.609 15.92c-3.078 3.357-8.136 5.038-15.179 5.038c-3.705 0-6.946-1.119-9.71-3.362v-34.4 C182.695 48.3 186 46.8 189.6 46.824z M193.025 101.787c10.012 0 17.905-2.902 23.691-8.701 c5.78-5.791 8.671-14.071 8.671-24.803c0-23.025-10.455-34.545-31.379-34.545c-5.603 0-10.322 1.843-14.16 5.518v-4.407h-15.312 v91.272h15.312V98.9C183.81 100.8 188.2 101.8 193 101.787z" class="style0"/><path d="M339.236 49.229c-2.722-1.721-5.708-2.583-8.963-2.583c-3.532 0-6.671 1.607-9.417 4.8 c-2.741 3.213-4.108 7.141-4.108 11.777v37.236H301.44v-65.64h15.308v6.271c4.258-4.922 9.931-7.381 17.006-7.381 c5.195 0 9.2 0.8 11.9 2.39L339.236 49.229z" class="style0"/><line x1="130.2" y1="3.8" x2="130.2" y2="132.8" class="style1"/><line x1="258.3" y1="3.8" x2="258.3" y2="132.8" class="style1"/><rect x="2" y="2" width="384.2" height="132.1" class="style1"/></svg>